<?xml version="1.0" encoding="UTF-8"?>
<svg width="40px" height="40px" viewBox="0 0 40 40" version="1.1" xmlns="http://www.w3.org/2000/svg" xmlns:xlink="http://www.w3.org/1999/xlink">
    <!-- Generator: Sketch 58 (84663) - https://sketch.com -->
    <title>chat</title>
    <desc>Created with Sketch.</desc>
    <g id="chat" stroke="none" stroke-width="1" fill="none" fill-rule="evenodd">
        <g fill="#2F3640" fill-rule="nonzero">
            <path d="M34.140625,11.7187496 L30.625,11.7187496 L30.625,5.8593748 C30.625,2.6284789 27.996521,0 24.765625,0 L5.859375,0 C2.62847898,0 0,2.6284789 0,5.8593748 L0,17.5781244 C0,20.4077142 2.01629641,22.7752678 4.6875,23.3197014 L4.6875,26.9531241 C4.6875,27.385253 4.92553711,27.7822866 5.30639648,27.9864492 C5.68664547,28.1896963 6.1489868,28.1683341 6.50939938,27.9281607 L9.375,26.0177604 L9.375,29.296874 C9.375,32.5277699 12.003479,35.1562488 15.234375,35.1562488 L26.7446899,35.1562488 L33.4759522,39.7930895 C33.8348389,40.040587 34.3008423,40.0677477 34.6856689,39.8654162 C35.0711059,39.6630846 35.3125,39.2636095 35.3125,38.8281237 L35.3125,35.038451 C37.9837036,34.4940174 40,32.1264638 40,29.296874 L40,17.5781244 C40,14.3472285 37.371521,11.7187496 34.140625,11.7187496 Z M5.859375,21.0937493 C3.92089844,21.0937493 2.34375,19.5166009 2.34375,17.5781244 L2.34375,5.8593748 C2.34375,3.92089831 3.92089844,2.34374992 5.859375,2.34374992 L24.765625,2.34374992 C26.7041016,2.34374992 28.28125,3.92089831 28.28125,5.8593748 L28.28125,17.5781244 C28.28125,19.5166009 26.7041016,21.0937493 24.765625,21.0937493 L12.890625,21.0937493 C12.6593017,21.0937493 12.4331665,21.1621087 12.2406006,21.2905876 L7.03125,24.7634879 L7.03125,22.2656243 C7.03125,21.6183465 6.50665281,21.0937493 5.859375,21.0937493 Z M37.65625,29.296874 C37.65625,31.2353505 36.0791016,32.8124989 34.140625,32.8124989 C33.4933472,32.8124989 32.96875,33.3370961 32.96875,33.9843739 L32.96875,36.5978992 L27.774353,33.0194081 C27.5787353,32.8845204 27.3468017,32.8124989 27.109375,32.8124989 L15.234375,32.8124989 C13.2958984,32.8124989 11.71875,31.2353505 11.71875,29.296874 L11.71875,24.4552604 L13.2455445,23.4374992 L24.765625,23.4374992 C27.996521,23.4374992 30.625,20.8090203 30.625,17.5781244 L30.625,14.0624995 L34.140625,14.0624995 C36.0791016,14.0624995 37.65625,15.6396479 37.65625,17.5781244 L37.65625,29.296874 Z" id="Shape"></path>
            <path d="M8.18421053,8 L17.8157895,8 C18.4698807,8 19,7.55234373 19,7 C19,6.44765627 18.4698807,6 17.8157895,6 L8.18421053,6 C7.53011926,6 7,6.44765627 7,7 C7,7.55234373 7.53011926,8 8.18421053,8 Z" id="Path"></path>
            <path d="M8.18421053,13 L17.8157895,13 C18.4698807,13 19,12.5523437 19,12 C19,11.4476563 18.4698807,11 17.8157895,11 L8.18421053,11 C7.53011926,11 7,11.4476563 7,12 C7,12.5523437 7.53011926,13 8.18421053,13 Z" id="Path"></path>
            <path d="M8.20283019,17 L22.7971698,17 C23.4615455,17 24,16.5523437 24,16 C24,15.4476563 23.4615455,15 22.7971698,15 L8.20283019,15 C7.53845447,15 7,15.4476563 7,16 C7,16.5523437 7.53845447,17 8.20283019,17 Z" id="Path"></path>
            <path d="M23,7 C23,7.55234373 22.5523437,8 22,8 C21.4476563,8 21,7.55234373 21,7 C21,6.44765627 21.4476563,6 22,6 C22.5523437,6 23,6.44765627 23,7 Z" id="Path"></path>
            <path d="M23,12 C23,12.5523437 22.5523437,13 22,13 C21.4476563,13 21,12.5523437 21,12 C21,11.4476563 21.4476563,11 22,11 C22.5523437,11 23,11.4476563 23,12 Z" id="Path"></path>
            <path d="M31.8571429,27 L18.1428571,27 C17.5116072,27 17,27.4476563 17,28 C17,28.5523437 17.5116072,29 18.1428571,29 L31.8571429,29 C32.4883928,29 33,28.5523437 33,28 C33,27.4476563 32.4883928,27 31.8571429,27 Z" id="Path"></path>
        </g>
    </g>
</svg>