<?xml version="1.0" encoding="UTF-8"?>
<svg width="12px" height="9px" viewBox="0 0 12 9" version="1.1" xmlns="http://www.w3.org/2000/svg" xmlns:xlink="http://www.w3.org/1999/xlink">
    <!-- Generator: Sketch 58 (84663) - https://sketch.com -->
    <title>E-mail</title>
    <desc>Created with Sketch.</desc>
    <g id="E-mail" stroke="none" stroke-width="1" fill="none" fill-rule="evenodd">
        <g id="ic-contact-05" fill="#848F9F" fill-rule="nonzero">
            <path d="M10.5490909,0 L10.4018182,0 L1.59818182,0 L1.45090909,0 C0.620271243,0.094731859 -0.00538449599,0.800358633 -3.44914957e-05,1.63636364 L-3.44914957e-05,7.09090909 C-3.44914957e-05,7.99464777 0.732624955,8.72727273 1.63636364,8.72727273 L10.3636364,8.72727273 C11.267375,8.72727273 12.0000345,7.99464777 12.0000345,7.09090909 L12.0000345,1.63636364 C12.0053845,0.800358633 11.3797288,0.094731859 10.5490909,0 Z M10.2981818,1.09090909 L6.54545455,4.84363636 C6.33270684,5.05512196 5.98911134,5.05512196 5.77636364,4.84363636 L2.02363636,1.09090909 L10.2981818,1.09090909 Z M10.9090909,7.09090909 C10.9090909,7.39215532 10.6648826,7.63636364 10.3636364,7.63636364 L1.63636364,7.63636364 C1.33511741,7.63636364 1.09090909,7.39215532 1.09090909,7.09090909 L1.09090909,1.86 L4.84363636,5.61272727 C5.48251101,6.25080737 6.51748899,6.25080737 7.15636364,5.61272727 L10.9090909,1.86 L10.9090909,7.09090909 Z" id="Shape"></path>
        </g>
    </g>
</svg>