<?xml version="1.0" encoding="UTF-8"?>
<svg width="14px" height="13px" viewBox="0 0 14 13" version="1.1" xmlns="http://www.w3.org/2000/svg" xmlns:xlink="http://www.w3.org/1999/xlink">
    <!-- Generator: Sketch 58 (84663) - https://sketch.com -->
    <title>favorites</title>
    <desc>Created with Sketch.</desc>
    <g id="favorites" stroke="none" stroke-width="1" fill="none" fill-rule="evenodd">
        <g fill="#2F3640" fill-rule="nonzero" id="heart" stroke="#2F3640" stroke-width="0.3">
            <g>
                <path d="M7,13 C6.80068971,13 6.60853577,12.924639 6.458786,12.7877405 C5.89321901,12.2715844 5.34794616,11.7865314 4.86686706,11.3586681 L4.86441041,11.3564384 C3.45396423,10.1019449 2.23599245,9.0185744 1.3885498,7.95136863 C0.44123841,6.75830104 0,5.62710527 0,4.39134052 C0,3.1906922 0.394454949,2.08301889 1.11062623,1.27221898 C1.83534241,0.451831708 2.82975768,0 3.91101074,0 C4.71914674,0 5.45924378,0.266662093 6.11068724,0.792517058 C6.43945312,1.05795286 6.73745729,1.38280794 7,1.76173122 C7.26264954,1.38280794 7.56054688,1.05795286 7.88941956,0.792517058 C8.54086302,0.266662093 9.28096009,0 10.0890961,0 C11.1702423,0 12.1647644,0.451831708 12.8894806,1.27221898 C13.6056519,2.08301889 14,3.1906922 14,4.39134052 C14,5.62710527 13.5588684,6.75830104 12.611557,7.95125716 C11.7641144,9.0185744 10.5462494,10.1018334 9.13601686,11.3562155 C8.65408327,11.7847477 8.10795593,12.2705811 7.54110716,12.7879635 C7.39146423,12.924639 7.19920348,13 7,13 L7,13 Z" id="Shape"></path>
            </g>
        </g>
    </g>
</svg>