<svg width="24" height="19" viewBox="0 0 24 19" fill="none" xmlns="http://www.w3.org/2000/svg">
<path fill-rule="evenodd" clip-rule="evenodd" d="M9.68818 18.6898C9.9128 18.8899 10.201 19 10.5 19C10.7988 19 11.0872 18.8899 11.3117 18.6901C12.1619 17.9339 12.9811 17.2239 13.704 16.5975L13.7043 16.5973C15.8195 14.7641 17.6462 13.1809 18.9173 11.6211C20.3383 9.87752 21 8.22423 21 6.41811C21 4.66332 20.4085 3.04441 19.3342 1.8594C18.2471 0.660369 16.7554 0 15.1336 0C13.9214 0 12.8113 0.389737 11.8341 1.15829C11.3408 1.54624 10.894 2.02103 10.5 2.57484C10.1062 2.02103 9.65918 1.54624 9.16603 1.15829C8.18887 0.389737 7.07872 0 5.86652 0C4.24464 0 2.75301 0.660369 1.66594 1.8594C0.591682 3.04441 0 4.66332 0 6.41811C0 8.22423 0.661858 9.87752 2.08282 11.6212C3.35399 13.181 5.18095 14.7644 7.29662 16.5979L7.3003 16.6011C8.02192 17.2265 8.83983 17.9354 9.68818 18.6898ZM2.57021 2.7073C3.42176 1.76815 4.59231 1.251 5.86652 1.251C6.79978 1.251 7.65678 1.55276 8.41349 2.14779C9.08801 2.6783 9.55776 3.34893 9.83302 3.81818C9.97465 4.05949 10.2239 4.20352 10.5 4.20352C10.7761 4.20352 11.0254 4.05949 11.167 3.81818C11.4424 3.34893 11.9122 2.6783 12.5865 2.14779C13.3432 1.55276 14.2002 1.251 15.1336 1.251C16.4077 1.251 17.5784 1.76815 18.4298 2.7073C19.294 3.66063 19.77 4.97843 19.77 6.41811C19.77 7.93714 19.2149 9.29568 17.9703 10.823C16.7683 12.298 14.9811 13.847 12.9118 15.6407L12.9061 15.6455C12.1804 16.2743 11.358 16.9871 10.4982 17.7485C9.64364 16.9886 8.82253 16.2769 8.09818 15.6491L8.09434 15.6459L8.09312 15.6448C6.02171 13.8496 4.23271 12.2991 3.02987 10.823C1.78514 9.29568 1.22999 7.93714 1.22999 6.41811C1.22999 4.97843 1.70599 3.66063 2.57021 2.7073Z" fill="#2F3640"/>
<path fill-rule="evenodd" clip-rule="evenodd" d="M20 7C21.6569 7 23 5.65685 23 4C23 2.34315 21.6569 1 20 1C18.3431 1 17 2.34315 17 4C17 5.65685 18.3431 7 20 7Z" fill="#00DFC8" stroke="white" stroke-width="2"/>
</svg>
