<?xml version="1.0" encoding="UTF-8"?>
<svg width="21px" height="19px" viewBox="0 0 21 19" version="1.1" xmlns="http://www.w3.org/2000/svg" xmlns:xlink="http://www.w3.org/1999/xlink">
    <!-- Generator: Sketch 58 (84663) - https://sketch.com -->
    <title>heart</title>
    <desc>Created with Sketch.</desc>
    <g id="heart" stroke="none" stroke-width="1" fill="none" fill-rule="evenodd">
        <g fill="#2F3640" fill-rule="nonzero" id="Shape">
            <path d="M10.5,19 C10.2010346,19 9.91280366,18.889857 9.68817901,18.6897746 C8.83982851,17.9353926 8.02191924,17.226469 7.30030059,16.6011302 L7.29661562,16.5978716 C5.18094634,14.764381 3.35398867,13.1809934 2.08282471,11.6212311 C0.661857615,9.8775169 0,8.22423078 0,6.41811307 C0,4.66331937 0.591682424,3.04441223 1.66593935,1.85939697 C2.75301362,0.66036942 4.24463653,0 5.86651611,0 C7.07872011,0 8.18886567,0.389736905 9.16603086,1.15829416 C9.65917969,1.54623879 10.1061859,2.021027 10.5,2.57483793 C10.8939743,2.021027 11.3408203,1.54623879 11.8341293,1.15829416 C12.8112945,0.389736905 13.9214401,0 15.1336441,0 C16.7553635,0 18.2471466,0.66036942 19.3342209,1.85939697 C20.4084778,3.04441223 21,4.66331937 21,6.41811307 C21,8.22423078 20.3383026,9.8775169 18.9173355,11.6210682 C17.6461716,13.1809934 15.8193741,14.7642181 13.7040253,16.5975457 C12.9811249,17.223862 12.1619339,17.9339262 11.3116607,18.6901005 C11.0871963,18.889857 10.7988052,19 10.5,19 L10.5,19 Z M5.86651611,1.25100335 C4.59230805,1.25100335 3.42176055,1.76815422 2.57020567,2.70730285 C1.70599365,3.6606267 1.22998809,4.97843276 1.22998809,6.41811307 C1.22998809,7.93714195 1.78514101,9.29568141 3.02986909,10.8230199 C4.23294067,12.2993603 6.02240752,13.8501612 8.09433745,15.6458512 L8.09818267,15.6491099 C8.822525,16.2768926 9.64363862,16.9885861 10.4982376,17.7485079 C11.3579636,16.9871197 12.1803589,16.2742857 12.9061432,15.6455253 C14.9779129,13.8498354 16.7672195,12.2993603 17.9702911,10.8230199 C19.214859,9.29568141 19.7700119,7.93714195 19.7700119,6.41811307 C19.7700119,4.97843276 19.2940063,3.6606267 18.4297943,2.70730285 C17.5783997,1.76815422 16.4076919,1.25100335 15.1336441,1.25100335 C14.2002182,1.25100335 13.3432159,1.55275613 12.5865097,2.14778927 C11.9121552,2.67830071 11.4423981,3.34893491 11.1669846,3.81818336 C11.0253525,4.05948788 10.7760544,4.20352109 10.5,4.20352109 C10.2239456,4.20352109 9.97464751,4.05948788 9.83301543,3.81818336 C9.55776216,3.34893491 9.08800508,2.67830071 8.41349029,2.14778927 C7.65678408,1.55275613 6.79978179,1.25100335 5.86651611,1.25100335 Z"></path>
        </g>
    </g>
</svg>