<?xml version="1.0" encoding="UTF-8"?>
<svg width="40px" height="40px" viewBox="0 0 40 40" version="1.1" xmlns="http://www.w3.org/2000/svg" xmlns:xlink="http://www.w3.org/1999/xlink">
    <!-- Generator: Sketch 58 (84663) - https://sketch.com -->
    <title>history</title>
    <desc>Created with Sketch.</desc>
    <g id="history" stroke="none" stroke-width="1" fill="none" fill-rule="evenodd">
        <g fill="#2F3640" fill-rule="nonzero">
            <path d="M20,0 C19.3528125,0 18.828125,0.5246875 18.828125,1.171875 C18.828125,1.8190625 19.3528125,2.34375 20,2.34375 C29.7357031,2.34375 37.65625,10.2642969 37.65625,20 C37.65625,29.7357031 29.7357031,37.65625 20,37.65625 C10.2642969,37.65625 2.34375,29.7357031 2.34375,20 C2.34375,15.2846094 4.32578125,10.731875 7.73570312,7.4190625 L7.73570312,9.453125 C7.73570312,10.1003125 8.26039062,10.625 8.90757813,10.625 C9.55476562,10.625 10.078125,10.1003125 10.078125,9.453125 L10.078125,4.765625 C10.078125,4.1184375 9.55476562,3.59375 8.90757813,3.59375 L4.1796875,3.59375 C3.5325,3.59375 3.0078125,4.1184375 3.0078125,4.765625 C3.0078125,5.4128125 3.5325,5.9296875 4.1796875,5.9296875 L5.899375,5.9296875 C2.11,9.71265625 0,14.7717969 0,20 C0,30.9953125 9.00070313,40 20,40 C30.9953125,40 40,30.9992969 40,20 C40,9.0046875 30.9992969,0 20,0 Z" id="Path"></path>
            <path d="M20,7 C12.8322727,7 7,12.8341636 7,20 C7,27.1682 12.8346364,33 20,33 C27.1677273,33 33,27.1658364 33,20 C33,12.8318 27.1653636,7 20,7 Z M28.3065273,26.6352 L27.5210909,25.8496848 C27.0596303,25.3881455 26.311303,25.3881455 25.8497636,25.8496848 C25.3882242,26.3112242 25.3882242,27.0594727 25.8497636,27.5210121 L26.6352788,28.3065273 C25.1048242,29.5314424 23.230303,30.3428 21.1818182,30.5703394 L21.1818182,29.4545455 C21.1818182,28.8018667 20.6526788,28.2727273 20,28.2727273 C19.3473212,28.2727273 18.8181818,28.8018667 18.8181818,29.4545455 L18.8181818,30.5703394 C16.769697,30.3428 14.8951758,29.5314424 13.3648,28.3065273 L14.1503152,27.5210121 C14.6118545,27.0594727 14.6118545,26.3112242 14.1503152,25.8496848 C13.6888545,25.3881455 12.9405273,25.3881455 12.4789879,25.8496848 L11.6934727,26.6352 C10.4685576,25.1048242 9.65712121,23.230303 9.42966061,21.1818182 L10.5454545,21.1818182 C11.1981333,21.1818182 11.7272727,20.6526788 11.7272727,20 C11.7272727,19.3473212 11.1981333,18.8181818 10.5454545,18.8181818 L9.42966061,18.8181818 C9.6572,16.769697 10.4685576,14.8951758 11.6934727,13.3648 L12.4789879,14.1503152 C12.9404485,14.6118545 13.6888545,14.6118545 14.1503152,14.1503152 C14.6118545,13.6887758 14.6118545,12.9405273 14.1503152,12.4789879 L13.3648,11.6934727 C14.8951758,10.4685576 16.769697,9.6572 18.8181818,9.42966061 L18.8181818,10.5454545 C18.8181818,11.1981333 19.3473212,11.7272727 20,11.7272727 C20.6526788,11.7272727 21.1818182,11.1981333 21.1818182,10.5454545 L21.1818182,9.42966061 C23.230303,9.6572 25.1048242,10.4685576 26.6352,11.6934727 L25.8496848,12.4789879 C25.3881455,12.9405273 25.3881455,13.6887758 25.8496848,14.1503152 C26.3111455,14.6118545 27.0595515,14.6118545 27.5210121,14.1503152 L28.3064485,13.3648 C29.5314424,14.8951758 30.3428788,16.769697 30.5703394,18.8181818 L29.4545455,18.8181818 C28.8018667,18.8181818 28.2727273,19.3473212 28.2727273,20 C28.2727273,20.6526788 28.8018667,21.1739394 29.4545455,21.1739394 L30.5703394,21.1739394 C30.3428,23.2224242 29.5314424,25.1048242 28.3065273,26.6352 Z" id="Shape"></path>
            <path d="M23.6338781,21.0795045 L21.4999792,19.1590465 L21.4999792,15.1250047 C21.4999792,14.5037021 20.9403172,14 20.2499896,14 C19.559662,14 19,14.5037021 19,15.1250047 L19,19.6250234 C19,19.9233747 19.1317489,20.2095009 19.3661636,20.4204768 L21.8661428,22.6704861 C22.354222,23.109838 23.1457988,23.109838 23.6338781,22.6704861 C24.1220406,22.2311343 24.1220406,21.5188563 23.6338781,21.0795045 Z" id="Path"></path>
        </g>
    </g>
</svg>