<?xml version="1.0" encoding="UTF-8"?>
<svg width="15px" height="12px" viewBox="0 0 15 12" version="1.1" xmlns="http://www.w3.org/2000/svg" xmlns:xlink="http://www.w3.org/1999/xlink">
    <!-- Generator: Sketch 58 (84663) - https://sketch.com -->
    <title>Home</title>
    <desc>Created with Sketch.</desc>
    <g id="Home" stroke="none" stroke-width="1" fill="none" fill-rule="evenodd">
        <g id="ic-ecommerce-10" fill="#848F9F" fill-rule="nonzero">
            <path d="M12.9698191,0.444 C12.8511438,0.175933699 12.5758675,0.00120044719 12.2703376,0 L2.72966238,0 C2.4241325,0.00120044719 2.14885621,0.175933699 2.03018091,0.444 L0.0577691856,5.004 C-0.0391519064,5.22634486 -0.0129515535,5.48009881 0.127589226,5.6802165 C0.268130005,5.88033419 0.50441391,6.0003347 0.757250659,6 L1.68989262,6 L1.68989262,10.8 L1.1983651,10.8 C0.850335417,10.8 0.568201612,11.0686292 0.568201612,11.4 C0.568201612,11.7313708 0.850335417,12 1.1983651,12 L13.8016349,12 C14.1496646,12 14.4317984,11.7313708 14.4317984,11.4 C14.4317984,11.0686292 14.1496646,10.8 13.8016349,10.8 L13.0328354,10.8 L13.0328354,6 L14.2427493,6 C14.4955861,6.0003347 14.73187,5.88033419 14.8724108,5.6802165 C15.0129516,5.48009881 15.0391519,5.22634486 14.9422308,5.004 L12.9698191,0.444 Z M5.47087356,10.8 L5.47087356,7.8 L6.73120054,7.8 L6.73120054,10.632 C6.73408571,10.6895899 6.74685804,10.7463411 6.76901035,10.8 L5.47087356,10.8 Z M7.99152752,10.8 C7.99808285,10.7441739 7.99808285,10.6878261 7.99152752,10.632 L7.99152752,7.8 L9.2518545,7.8 L9.2518545,10.8 L7.99152752,10.8 Z M11.8040166,10.8 L10.5436897,10.8 L10.5436897,7.32 C10.5436897,6.92235498 10.2051291,6.6 9.78749347,6.6 L4.97934604,6.6 C4.56171042,6.6 4.22314985,6.92235498 4.22314985,7.32 L4.22314985,10.8 L2.96282287,10.8 L2.96282287,6 L3.98998936,6 C4.15088102,6.00130006 4.30787515,5.95287714 4.43740544,5.862 L5.7670504,4.944 L7.02737738,5.832 C7.29364731,6.0180646 7.65593961,6.0180646 7.92220954,5.832 L9.18253652,4.944 L10.5121815,5.862 C10.6397726,5.95203307 10.7944855,6.00043408 10.9532959,6 L11.7220954,6 L11.8040166,10.8 Z M11.1738531,4.8 L9.68036567,3.768 C9.41409575,3.5819354 9.05180345,3.5819354 8.78553352,3.768 L7.5,4.656 L6.23967302,3.768 C5.97340309,3.5819354 5.61111079,3.5819354 5.34484086,3.768 L3.82614685,4.8 L1.50714521,4.8 L3.08885557,1.2 L11.9111444,1.2 L13.4739499,4.8 L11.1738531,4.8 Z" id="Shape"></path>
        </g>
    </g>
</svg>