<?xml version="1.0" encoding="UTF-8"?>
<svg width="20px" height="20px" viewBox="0 0 20 20" version="1.1" xmlns="http://www.w3.org/2000/svg" xmlns:xlink="http://www.w3.org/1999/xlink">
    <!-- Generator: Sketch 58 (84663) - https://sketch.com -->
    <title>instagram (1)</title>
    <desc>Created with Sketch.</desc>
    <g id="instagram-(1)" stroke="none" stroke-width="1" fill="none" fill-rule="evenodd">
        <g fill="#000000" fill-rule="nonzero">
            <path d="M13.75,0 L6.25,0 C2.79875,0 0,2.79875 0,6.25 L0,13.75 C0,17.20125 2.79875,20 6.25,20 L13.75,20 C17.20125,20 20,17.20125 20,13.75 L20,6.25 C20,2.79875 17.20125,0 13.75,0 Z M18.125,13.75 C18.125,16.1625 16.1625,18.125 13.75,18.125 L6.25,18.125 C3.8375,18.125 1.875,16.1625 1.875,13.75 L1.875,6.25 C1.875,3.8375 3.8375,1.875 6.25,1.875 L13.75,1.875 C16.1625,1.875 18.125,3.8375 18.125,6.25 L18.125,13.75 Z" id="Shape"></path>
            <path d="M9.90846657,5.2173913 C7.31782025,5.2173913 5.2173913,7.31782025 5.2173913,9.90846657 C5.2173913,12.4991129 7.31782025,14.5995418 9.90846657,14.5995418 C12.4991129,14.5995418 14.5995418,12.4991129 14.5995418,9.90846657 C14.5995418,7.31782025 12.4991129,5.2173913 9.90846657,5.2173913 Z M9.90846657,12.8403886 C8.29239114,12.8403886 6.97654453,11.524542 6.97654453,9.90846657 C6.97654453,8.29121837 8.29239114,6.97654453 9.90846657,6.97654453 C11.524542,6.97654453 12.8403886,8.29121837 12.8403886,9.90846657 C12.8403886,11.524542 11.524542,12.8403886 9.90846657,12.8403886 Z" id="Shape"></path>
            <circle id="Oval" cx="14.5995423" cy="4.34782609" r="1"></circle>
        </g>
    </g>
</svg>