<?xml version="1.0" encoding="UTF-8"?>
<svg width="8px" height="7px" viewBox="0 0 8 7" version="1.1" xmlns="http://www.w3.org/2000/svg" xmlns:xlink="http://www.w3.org/1999/xlink">
    <!-- Generator: Sketch 58 (84663) - https://sketch.com -->
    <title>left-arrow</title>
    <desc>Created with Sketch.</desc>
    <g id="left-arrow" stroke="none" stroke-width="1" fill="none" fill-rule="evenodd">
        <g transform="translate(4.000000, 3.500000) scale(-1, 1) translate(-4.000000, -3.500000) " fill="#2F3640" fill-rule="nonzero" id="Path">
            <path d="M7.55030904,2.83911005 L7.56279684,2.8419878 L2.20956224,2.8419878 L3.89242366,1.06524867 C3.97483015,0.978504938 4.02003339,0.860996643 4.02003339,0.737664321 C4.02003339,0.614331999 3.97483015,0.497645919 3.89242366,0.410696632 L3.63057006,0.134706303 C3.54822861,0.0479625696 3.43850506,0 3.32149695,0 C3.20442381,0 3.09463521,0.0476199798 3.01229377,0.134363713 L0.12754643,3.17306657 C0.0448797815,3.26015289 -0.000323460654,3.37615379 0,3.49955463 C-0.000323460654,3.62364065 0.0448797815,3.73971007 0.12754643,3.82665936 L3.01229377,6.86563629 C3.09463521,6.9523115 3.20435877,7 3.32149695,7 C3.43850506,7 3.54822861,6.95224298 3.63057006,6.86563629 L3.89242366,6.58964596 C3.97483015,6.50303926 4.02003339,6.38738095 4.02003339,6.26404863 C4.02003339,6.14078482 3.97483015,6.03122461 3.89242366,5.9445494 L2.19057037,4.15787516 L7.55629278,4.15787516 C7.79739842,4.15787516 8,3.93896029 8,3.68510126 L8,3.29475446 C8,3.04089543 7.79141468,2.83911005 7.55030904,2.83911005 Z"></path>
        </g>
    </g>
</svg>