<?xml version="1.0" encoding="UTF-8"?>
<svg width="12px" height="12px" viewBox="0 0 12 12" version="1.1" xmlns="http://www.w3.org/2000/svg" xmlns:xlink="http://www.w3.org/1999/xlink">
    <!-- Generator: Sketch 58 (84663) - https://sketch.com -->
    <title>Phone</title>
    <desc>Created with Sketch.</desc>
    <g id="Phone" stroke="none" stroke-width="1" fill="none" fill-rule="evenodd">
        <g id="ic-contact-02" fill="#848F9F" fill-rule="nonzero">
            <path d="M1.506,10.842 C2.36022787,11.7742422 3.80615975,11.8438611 4.746,10.998 L5.094,10.65 C5.90405446,9.76776271 5.89093355,8.40843625 5.064,7.542 C5.39232826,7.0537103 5.76381849,6.59587369 6.174,6.174 C6.59386004,5.7627732 7.04744761,5.38745958 7.53,5.052 C8.39484738,5.88985212 9.76291254,5.90826838 10.65,5.094 L10.998,4.746 C11.8438611,3.80615975 11.7742422,2.36022787 10.842,1.506 L10.242,0.906 C9.73499903,0.408576388 8.98289231,0.255804711 8.322,0.516 C6.57425966,1.2462837 4.98181669,2.30316082 3.63,3.63 C2.30770318,4.98869859 1.25690055,6.58730335 0.534,8.34 C0.273804711,9.00089231 0.426576388,9.75299903 0.924,10.26 L1.506,10.842 Z M1.644,8.796 C1.734,8.58 1.866,8.274 2.046,7.908 C2.106,7.788 2.178,7.662 2.25,7.524 C2.84307763,6.40718755 3.59264844,5.38082105 4.476,4.476 C4.97469878,3.98698782 5.51248471,3.53950176 6.084,3.138 C6.42,2.898 6.756,2.688 7.068,2.502 C7.38,2.316 7.668,2.178 7.908,2.046 C8.274,1.866 8.58,1.734 8.796,1.644 C9.00322567,1.56252438 9.23905406,1.61204834 9.396,1.77 L9.996,2.37 C10.458809,2.75673708 10.5255969,3.44331681 10.146,3.912 L9.798,4.26 C9.32774768,4.63816819 8.64098262,4.56869001 8.256,4.104 L7.686,3.504 C7.392,3.678 7.086,3.876 6.786,4.104 C6.26550316,4.46014128 5.77759441,4.86171227 5.328,5.304 C4.6345631,6.02946181 4.03028101,6.83517127 3.528,7.704 L4.08,8.256 C4.54469001,8.64098262 4.61416819,9.32774768 4.236,9.798 L3.888,10.146 C3.41931681,10.5255969 2.73273708,10.458809 2.346,9.996 L1.746,9.396 C1.59632317,9.23377681 1.55633814,8.99857077 1.644,8.796 Z" id="Shape"></path>
        </g>
    </g>
</svg>