<svg width="19" height="19" viewBox="0 0 19 19" fill="none" xmlns="http://www.w3.org/2000/svg">
<path fill-rule="evenodd" clip-rule="evenodd" d="M14.1466 13.1022L18.7835 17.7389C19.0721 18.0273 19.0721 18.495 18.7837 18.7836C18.6394 18.9279 18.4503 19 18.2613 19C18.0723 19 17.8832 18.9279 17.739 18.7837L13.102 14.1469C11.716 15.2993 9.9361 15.9937 7.99694 15.9937C3.58736 15.9937 0 12.4064 0 7.99713C0 3.58745 3.58736 0 7.99694 0C12.4062 0 15.9936 3.58745 15.9936 7.99713C15.9936 9.93628 15.2992 11.7162 14.1466 13.1022ZM7.99694 1.47741C4.402 1.47741 1.47741 4.40209 1.47741 7.99713C1.47741 11.5918 4.402 14.5162 7.99694 14.5162C11.5917 14.5162 14.5162 11.5917 14.5162 7.99703C14.5162 4.40209 11.5917 1.47741 7.99694 1.47741Z" fill="#1A2026"/>
</svg>
