<?xml version="1.0" encoding="UTF-8"?>
<svg width="19px" height="19px" viewBox="0 0 19 19" version="1.1" xmlns="http://www.w3.org/2000/svg" xmlns:xlink="http://www.w3.org/1999/xlink">
    <!-- Generator: Sketch 58 (84663) - https://sketch.com -->
    <title>Search</title>
    <desc>Created with Sketch.</desc>
    <g id="Search" stroke="none" stroke-width="1" fill="none" fill-rule="evenodd">
        <g fill="#1A2026" fill-rule="nonzero" id="find-in-the-world">
            <g>
                <path d="M18.7835344,17.7388818 L14.1466242,13.1021746 C15.2992034,11.716166 15.9935875,9.93627952 15.9935875,7.99712812 C15.9935875,3.58744978 12.4062316,0 7.99694149,0 C3.58735593,0 0,3.58744978 0,7.99712812 C0,12.4064125 3.58735593,15.9936653 7.99694149,15.9936653 C9.9360954,15.9936653 11.7159842,15.299282 13.1019946,14.1469013 L17.7390033,18.783707 C17.8831988,18.9279023 18.0723077,19 18.2613181,19 C18.4503285,19 18.6394373,18.9279023 18.7837313,18.7836085 C19.0721224,18.4950209 19.0721224,18.0272725 18.7835344,17.7388818 Z M1.47741308,7.99712812 C1.47741308,4.4020943 4.4020015,1.47741116 7.99694149,1.47741116 C11.5916845,1.47741116 14.5161744,4.4020943 14.5161744,7.99702963 C14.5161744,11.5916695 11.5916845,14.5161556 7.99694149,14.5161556 C4.4020015,14.5161556 1.47741308,11.591768 1.47741308,7.99712812 Z" id="Shape"></path>
            </g>
        </g>
    </g>
</svg>