<?xml version="1.0" encoding="UTF-8"?>
<svg width="40px" height="47px" viewBox="0 0 40 47" version="1.1" xmlns="http://www.w3.org/2000/svg" xmlns:xlink="http://www.w3.org/1999/xlink">
    <!-- Generator: Sketch 58 (84663) - https://sketch.com -->
    <title>shield (1)</title>
    <desc>Created with Sketch.</desc>
    <g id="shield-(1)" stroke="none" stroke-width="1" fill="none" fill-rule="evenodd">
        <g fill="#2F3640" fill-rule="nonzero">
            <path d="M39.9533879,12.7523008 L39.9519544,12.7157255 C39.9315271,12.2642721 39.9179088,11.7866425 39.9096662,11.2552256 C39.8713201,8.66376175 37.8124574,6.52016542 35.222125,6.37529876 C29.8214181,6.07373218 25.6434858,4.31166589 22.0737152,0.830204351 L22.0432534,0.801159233 C20.878894,-0.267053078 19.1224995,-0.267053078 17.9577817,0.801159233 L17.9273198,0.830204351 C14.3575494,4.31166589 10.1796169,6.07373218 4.77891009,6.37565731 C2.18893603,6.52016542 0.129714898,8.66376175 0.091368873,11.2555842 C0.0834845835,11.7834152 0.0695079468,12.2610449 0.0490806112,12.7157255 L0.0469304088,12.8007091 C-0.0580733585,18.3110212 -0.188521845,25.1688802 2.1043596,31.3934852 C3.36512188,34.8164982 5.27454234,37.7920021 7.77922317,40.2378822 C10.6318859,43.0233383 14.3683006,45.2347064 18.8845387,46.8103107 C19.0314723,46.8615878 19.18414,46.9031831 19.3396745,46.9343797 C19.5589999,46.9781266 19.7797587,47 20.0005175,47 C20.2212763,47 20.4423935,46.9781266 20.6613605,46.9343797 C20.8168952,46.9031831 20.9706379,46.8612292 21.1182883,46.8095935 C25.6291508,45.2311206 29.3616233,43.0186767 32.2117775,40.2335791 C34.7153831,37.786982 36.6248036,34.8107609 37.886641,31.3870308 C40.1881234,25.1437795 40.0580333,18.2730117 39.9533879,12.7523008 Z M35.3006091,30.4328472 C32.8822965,36.9934426 27.9456849,41.4990111 20.2087333,44.2062965 C20.1811384,44.2156197 20.1517517,44.2238669 20.1212898,44.2299629 C20.0413723,44.2457404 19.9600212,44.2457404 19.8790286,44.2296042 C19.848925,44.2235084 19.8195383,44.2156197 19.7923018,44.2062965 C12.0471076,41.5040312 7.10727056,37.0009728 4.69074987,30.4400187 C2.57741422,24.7023664 2.69711142,18.4071209 2.80283189,12.8534205 L2.80354868,12.8225826 C2.82505117,12.3453115 2.83938616,11.8454497 2.84727035,11.2961039 C2.86447234,10.1454179 3.7804781,9.19338575 4.93265282,9.12919975 C7.98887235,8.95851526 10.6738157,8.36757401 13.1408672,7.32266934 C15.6046934,6.27919909 17.7929293,4.80830036 19.8299312,2.82606537 C19.9335015,2.73857164 20.067892,2.73821308 20.1711039,2.82606537 C22.2084641,4.80830036 24.3967001,6.27919909 26.8601679,7.32266934 C29.3272193,8.36757401 32.0121628,8.95851526 35.0687407,9.12919975 C36.2209154,9.19338575 37.136921,10.1454179 37.1537647,11.2964625 C37.1620073,11.848677 37.1763423,12.3485387 37.1978448,12.8225826 C37.3032069,18.3827374 37.4200371,24.6830031 35.3006091,30.4328472 Z" id="Shape"></path>
            <path d="M19.5,12 C13.1587173,12 8,17.1589904 8,23.4998239 C8,29.8410097 13.1587173,35 19.5,35 C25.8409306,35 31,29.8410097 31,23.4998239 C31,17.1589904 25.8409306,12 19.5,12 Z M19.5,32.2920053 C14.6517985,32.2920053 10.707684,28.3479512 10.707684,23.4998239 C10.707684,18.6516968 14.6517985,14.7076426 19.5,14.7076426 C24.3478493,14.7076426 28.2919639,18.6516968 28.2919639,23.4998239 C28.2919639,28.3479512 24.3478493,32.2920053 19.5,32.2920053 Z" id="Shape"></path>
            <path d="M23.5700736,20.3965582 L17.9541943,25.7339568 L16.4299264,24.2852746 C15.8739648,23.7568819 14.9726554,23.7568819 14.4166936,24.2852746 C13.8611021,24.8136671 13.8611021,25.6702823 14.4166936,26.1983231 L16.9477629,28.6038815 C17.2257438,28.8680778 17.589969,29 17.9541943,29 C18.3184195,29 18.6826447,28.8680778 18.9606256,28.6038815 L25.5833063,22.3096069 C26.1388979,21.7812142 26.1388979,20.924599 25.5833063,20.3965582 C25.0273447,19.8678139 24.1260352,19.8678139 23.5700736,20.3965582 Z" id="Path"></path>
        </g>
    </g>
</svg>