<?xml version="1.0" encoding="UTF-8"?>
<svg width="44px" height="40px" viewBox="0 0 44 40" version="1.1" xmlns="http://www.w3.org/2000/svg" xmlns:xlink="http://www.w3.org/1999/xlink">
    <!-- Generator: Sketch 58 (84663) - https://sketch.com -->
    <title>stock</title>
    <desc>Created with Sketch.</desc>
    <g id="stock" stroke="none" stroke-width="1" fill="none" fill-rule="evenodd">
        <g fill="#2F3640" fill-rule="nonzero">
            <path d="M24.2857628,16 L27.7142372,16 C28.4242802,16 29,15.3283523 29,14.5 C29,13.6716478 28.4242802,13 27.7142372,13 L24.2857628,13 C23.5757198,13 23,13.6716478 23,14.5 C23,15.3283523 23.5757198,16 24.2857628,16 L24.2857628,16 Z" id="Path"></path>
            <path d="M42.7307434,18.723548 L33.4229736,18.723548 L33.4229736,1.27662087 C33.4229736,0.571626311 32.8546448,0 32.1537171,0 L11.8462829,0 C11.1453552,0 10.5770264,0.571626311 10.5770264,1.27662087 L10.5770264,18.723548 L1.26925657,18.723548 C0.568328836,18.723548 1.13686838e-13,19.2948366 1.13686838e-13,19.9998311 L1.13686838e-13,38.7233791 C1.13686838e-13,39.4283737 0.568328836,40 1.26925657,40 L42.7307434,40 C43.4316712,40 44,39.4283737 44,38.7233791 L44,19.9998311 C44,19.2948366 43.4316712,18.723548 42.7307434,18.723548 L42.7307434,18.723548 Z M30.0385131,21.2764521 L34.2692566,21.2764521 L34.2692566,27.2341288 L30.0385131,27.2341288 L30.0385131,21.2764521 Z M24.1155396,2.55324173 L24.1155396,8.51058087 L19.8844604,8.51058087 L19.8844604,2.55324173 L24.1155396,2.55324173 Z M13.1155396,2.55324173 L17.3462829,2.55324173 L17.3462829,9.78720174 C17.3462829,10.4921963 17.9142761,11.0638226 18.6155396,11.0638226 L25.3844604,11.0638226 C26.0857239,11.0638226 26.6537171,10.4921963 26.6537171,9.78720174 L26.6537171,2.55324173 L30.8844604,2.55324173 L30.8844604,18.723548 L13.1155396,18.723548 L13.1155396,2.55324173 Z M13.5385131,21.2764521 L13.5385131,27.2341288 L9.3077698,27.2341288 L9.3077698,21.2764521 L13.5385131,21.2764521 Z M2.53851314,21.2764521 L6.76925657,21.2764521 L6.76925657,28.5107496 C6.76925657,29.2157442 7.33758541,29.7873706 8.03851314,29.7873706 L14.8077698,29.7873706 C15.5086975,29.7873706 16.0770264,29.2157442 16.0770264,28.5107496 L16.0770264,21.2764521 L20.7307434,21.2764521 L20.7307434,37.4467583 L2.53851314,37.4467583 L2.53851314,21.2764521 Z M41.4614869,37.4467583 L23.2692566,37.4467583 L23.2692566,21.2764521 L27.5,21.2764521 L27.5,28.5107496 C27.5,29.2157442 28.0683288,29.7873706 28.7692566,29.7873706 L35.5385131,29.7873706 C36.2394409,29.7873706 36.8077698,29.2157442 36.8077698,28.5107496 L36.8077698,21.2764521 L41.4614869,21.2764521 L41.4614869,37.4467583 Z" id="Shape"></path>
            <path d="M35.2857629,32 C34.5753797,32 34,32.6716477 34,33.5 C34,34.3283523 34.5753797,35 35.2857629,35 L38.7142372,35 C39.4242802,35 40,34.3283523 40,33.5 C40,32.6716477 39.4242802,32 38.7142372,32 L35.2857629,32 Z" id="Path"></path>
            <path d="M17.71431,32 L14.28569,32 C13.5756872,32 13,32.6716477 13,33.5 C13,34.3283523 13.5756872,35 14.28569,35 L17.71431,35 C18.4243128,35 19,34.3283523 19,33.5 C19,32.6716477 18.4243128,32 17.71431,32 L17.71431,32 Z" id="Path"></path>
        </g>
    </g>
</svg>