<?xml version="1.0" encoding="UTF-8"?>
<svg width="19px" height="19px" viewBox="0 0 19 19" version="1.1" xmlns="http://www.w3.org/2000/svg" xmlns:xlink="http://www.w3.org/1999/xlink">
    <!-- Generator: Sketch 58 (84663) - https://sketch.com -->
    <title>telephone</title>
    <desc>Created with Sketch.</desc>
    <g id="telephone" stroke="none" stroke-width="1" fill="none" fill-rule="evenodd">
        <g fill="#2F3640" fill-rule="nonzero" id="Shape">
            <path d="M18.5115819,14.0137349 L16.1495029,11.6517586 C15.4982789,11.0005999 14.4386109,11.0005999 13.787424,11.6517586 L12.7137652,12.7253707 C12.2204114,13.2187031 11.4176259,13.2185547 10.9244576,12.7255563 L6.27073633,8.06806658 C5.77623206,7.5735838 5.77615783,6.77324533 6.27073633,6.27868833 C6.44367366,6.10575852 6.94025615,5.60919762 7.3443951,5.20507623 C7.99276164,4.55677498 8.00181673,3.50045586 7.34376421,2.84250617 L4.98231611,0.488582594 C4.33109202,-0.162576079 3.27146121,-0.162576079 2.62198134,0.486875561 C2.13597549,0.968629815 1.97921856,1.12404399 1.76130268,1.34005782 C-0.587082339,3.68830365 -0.587082339,7.50919899 1.76119135,9.8573706 L9.13485313,17.2345712 C11.4887306,19.5883835 15.2985474,19.588569 17.6526104,17.2345712 L18.5115819,16.3756741 C19.162806,15.7244783 19.162806,14.6649307 18.5115819,14.0137349 Z M3.40762153,1.27589566 C3.62468385,1.05884277 3.97783227,1.05880566 4.19559971,1.27648941 L6.55704781,3.63041299 C6.77462969,3.84798541 6.77462969,4.20011652 6.55704781,4.41772605 L6.16333705,4.81138259 L3.01595188,1.66413422 L3.40762153,1.27589566 Z M9.92234886,16.4473695 L2.54864998,9.07009464 C0.731768909,7.25329255 0.631903168,4.40050729 2.24151922,2.46439847 L5.37977508,5.60251792 C4.55516833,6.53726664 4.58953313,7.96163681 5.48320348,8.85526832 L10.1367763,13.5125353 C10.1368134,13.5125725 10.1368876,13.5126467 10.1369248,13.5126838 C11.0296302,14.4053876 12.4539881,14.4419774 13.3899279,13.6162932 L16.528258,16.7544869 C14.5982254,18.3612498 11.7517363,18.2766775 9.92234886,16.4473695 Z M17.7242718,15.5883611 L17.330561,15.9820547 L14.1811347,12.8327282 L14.5747712,12.4390717 C14.7918707,12.2220188 15.1450562,12.2219817 15.3621557,12.4390717 L17.7242346,14.801048 C17.9413341,15.018138 17.9413341,15.3713453 17.7242718,15.5883611 Z"></path>
        </g>
    </g>
</svg>