<?xml version="1.0" encoding="UTF-8"?>
<svg width="12px" height="12px" viewBox="0 0 12 12" version="1.1" xmlns="http://www.w3.org/2000/svg" xmlns:xlink="http://www.w3.org/1999/xlink">
    <!-- Generator: Sketch 58 (84663) - https://sketch.com -->
    <title>weekly-calendar</title>
    <desc>Created with Sketch.</desc>
    <g id="Page-1" stroke="none" stroke-width="1" fill="none" fill-rule="evenodd">
        <g id="6_News_Article" transform="translate(-1450.000000, -250.000000)" fill="#848F9F" fill-rule="nonzero">
            <g id="Title" transform="translate(370.000000, 235.000000)">
                <g id="weekly-calendar" transform="translate(1080.000000, 15.000000)">
                    <rect id="Rectangle" x="5" y="6" width="2" height="2"></rect>
                    <rect id="Rectangle" x="2" y="8" width="2" height="2"></rect>
                    <path d="M11.7536549,1.71937129 L10.3938937,1.71937129 L10.3938937,0.249817841 C10.3938937,0.111918393 10.2835862,0 10.1476717,0 L8.10205903,0 C7.96614447,0 7.855837,0.111918393 7.855837,0.249817841 L7.855837,1.71937129 L4.144163,1.71937129 L4.144163,0.249817841 C4.144163,0.111918393 4.03385553,0 3.89794097,0 L1.85220523,0 C1.71629067,0 1.6059832,0.111918393 1.6059832,0.249817841 L1.6059832,1.71937129 L0.246222031,1.71937129 C0.11030747,1.71937129 0,1.83128968 0,1.96918913 L0,11.7501822 C0,11.8880816 0.11030747,12 0.246222031,12 L11.753778,12 C11.8896925,12 12,11.8880816 12,11.7501822 L12,1.96918913 C11.9998769,1.83128968 11.8895694,1.71937129 11.7536549,1.71937129 Z M8.57406666,0.916331841 C8.57406666,0.812907255 8.65679727,0.72896846 8.75873319,0.72896846 L9.4908744,0.72896846 C9.59293343,0.72896846 9.67554092,0.812907255 9.67554092,0.916331841 L9.67554092,3.45697929 C9.67554092,3.56040387 9.59293343,3.64434267 9.4908744,3.64434267 L8.75873319,3.64434267 C8.65679727,3.64434267 8.57406666,3.56040387 8.57406666,3.45697929 L8.57406666,0.916331841 Z M2.32433597,0.916331841 C2.32433597,0.812907255 2.40694346,0.72896846 2.50900249,0.72896846 L3.2411437,0.72896846 C3.34320273,0.72896846 3.42581022,0.812907255 3.42581022,0.916331841 L3.42581022,3.45697929 C3.42581022,3.56040387 3.34320273,3.64434267 3.2411437,3.64434267 L2.50900249,3.64434267 C2.40694346,3.64434267 2.32433597,3.56040387 2.32433597,3.45697929 L2.32433597,0.916331841 Z M10.7190299,10.517456 C10.7190299,10.6208806 10.6365455,10.7048194 10.5343634,10.7048194 L1.46539042,10.7048194 C1.36333138,10.7048194 1.28072389,10.6208806 1.28072389,10.517456 L1.28072389,5.5210992 C1.28072389,5.41767461 1.36333138,5.33373582 1.46539042,5.33373582 L10.5344865,5.33373582 C10.6366686,5.33373582 10.719153,5.41767461 10.719153,5.5210992 L10.719153,10.517456 L10.7190299,10.517456 Z" id="Shape"></path>
                    <rect id="Rectangle" x="8" y="8" width="2" height="2"></rect>
                </g>
            </g>
        </g>
    </g>
</svg>