<?xml version="1.0" encoding="UTF-8"?>
<svg width="27px" height="22px" viewBox="0 0 27 22" version="1.1" xmlns="http://www.w3.org/2000/svg" xmlns:xlink="http://www.w3.org/1999/xlink">
    <!-- Generator: Sketch 58 (84663) - https://sketch.com -->
    <title>weight-tool</title>
    <desc>Created with Sketch.</desc>
    <g id="weight-tool" stroke="none" stroke-width="1" fill="none" fill-rule="evenodd">
        <g fill="#97A1AE" fill-rule="nonzero" id="Shape">
            <path d="M26.930884,20.1581863 L22.6961235,7.01384875 C22.5088884,6.4327247 21.9699918,6.03904716 21.3617865,6.03904716 L16.8928057,6.03904716 C17.2550553,5.43816392 17.4675698,4.73657968 17.4675698,3.98431267 C17.4675698,1.78749806 15.687601,0 13.4999414,0 C11.3123259,0 9.53231298,1.78745376 9.53231298,3.98431267 C9.53231298,4.73653538 9.74482748,5.43811961 10.1071212,6.03904716 L5.6382286,6.03904716 C5.03002332,6.03904716 4.4911268,6.4327247 4.30389169,7.01384875 L0.0691311826,20.1581863 C-0.223942056,21.0677737 0.451454333,22 1.4034681,22 L25.5965029,22 C26.5485608,22 27.2239131,21.067818 26.930884,20.1581863 Z M11.4022817,3.98431267 C11.4022817,2.82264051 12.3431778,1.87778782 13.4999855,1.87778782 C14.6567932,1.87778782 15.5976893,2.82264051 15.5976893,3.98431267 C15.5976893,4.99021505 14.8911459,5.8309554 13.9509115,6.03904716 L13.0491036,6.03904716 C12.1088251,5.8309997 11.4022817,4.99021505 11.4022817,3.98431267 Z M11.6453697,17.4253925 L10.4332386,15.088137 L9.85565089,15.088137 L9.85565089,17.4253925 L8.45138758,17.4253925 L8.45138758,11.6635943 L9.85565089,11.6635943 L9.85565089,13.8879655 L10.4332386,13.8879655 L11.6211933,11.6635943 L13.1299271,11.6635943 L11.5806492,14.41947 L11.5806492,14.4358622 L13.2181182,17.4253925 L11.6453697,17.4253925 L11.6453697,17.4253925 Z M19.0309653,17.4253925 L17.8593341,17.4253925 L17.8593341,17.263952 C17.8593341,17.1431816 17.8671871,17.0224999 17.8671871,17.0224999 L17.8515253,17.0224999 C17.8515253,17.0224999 17.2974082,17.5218404 16.3427915,17.5218404 C14.87394,17.5218404 13.5258826,16.4181611 13.5258826,14.5323101 C13.5258826,12.8564559 14.7856607,11.5670578 16.5355413,11.5670578 C18.0037752,11.5670578 18.7421715,12.332217 18.7421715,12.332217 L18.0678339,13.3880047 C18.0678339,13.3880047 17.4823492,12.8565002 16.6715118,12.8565002 C15.4678953,12.8565002 14.9784988,13.6301213 14.9784988,14.4837538 C14.9784988,15.5802561 15.7325568,16.2324867 16.6238207,16.2324867 C17.2974965,16.2324867 17.7868489,15.8138665 17.7868489,15.8138665 L17.7868489,15.3702593 L16.9766291,15.3702593 L16.9766291,14.1694675 L19.0309653,14.1694675 L19.0309653,17.4253925 L19.0309653,17.4253925 Z"></path>
        </g>
    </g>
</svg>